<?xml version="1.0" encoding="UTF-8" standalone="no"?>
<!DOCTYPE svg PUBLIC "-//W3C//DTD SVG 1.1//EN"
 "http://www.w3.org/Graphics/SVG/1.1/DTD/svg11.dtd">
<!-- Generated by graphviz version 2.43.0 (0)
 -->
<!-- Title: graph_name Pages: 1 -->
<svg width="719pt" height="70pt"
 viewBox="0.00 0.00 718.91 70.23" xmlns="http://www.w3.org/2000/svg" xmlns:xlink="http://www.w3.org/1999/xlink">
<g id="graph0" class="graph" transform="scale(1 1) rotate(0) translate(4 66.23)">
<title>graph_name</title>
<polygon fill="white" stroke="transparent" points="-4,4 -4,-66.23 714.91,-66.23 714.91,4 -4,4"/>
<!-- dat1 -->
<g id="node1" class="node">
<title>dat1</title>
<ellipse fill="white" stroke="black" cx="78.49" cy="-31.11" rx="78.48" ry="31.23"/>
<text text-anchor="middle" x="78.49" y="-36.31" font-family="Times,serif" font-size="16.00">Torchvision</text>
<text text-anchor="middle" x="78.49" y="-18.31" font-family="Times,serif" font-size="16.00">Model</text>
</g>
<!-- proc1 -->
<g id="node2" class="node">
<title>proc1</title>
<polygon fill="white" stroke="black" points="275.98,-49.11 192.98,-49.11 192.98,-13.11 275.98,-13.11 275.98,-49.11"/>
<text text-anchor="middle" x="234.48" y="-27.31" font-family="Times,serif" font-size="16.00">PyTorch</text>
</g>
<!-- dat1&#45;&gt;proc1 -->
<g id="edge1" class="edge">
<title>dat1&#45;&gt;proc1</title>
<path fill="none" stroke="black" d="M157.39,-31.11C165.99,-31.11 174.57,-31.11 182.72,-31.11"/>
<polygon fill="black" stroke="black" points="182.76,-34.61 192.76,-31.11 182.76,-27.61 182.76,-34.61"/>
</g>
<!-- dat2 -->
<g id="node3" class="node">
<title>dat2</title>
<ellipse fill="white" stroke="black" cx="360.77" cy="-31.11" rx="48.58" ry="31.23"/>
<text text-anchor="middle" x="360.77" y="-36.31" font-family="Times,serif" font-size="16.00">ONNX</text>
<text text-anchor="middle" x="360.77" y="-18.31" font-family="Times,serif" font-size="16.00">Model</text>
</g>
<!-- proc1&#45;&gt;dat2 -->
<g id="edge2" class="edge">
<title>proc1&#45;&gt;dat2</title>
<path fill="none" stroke="black" d="M276.18,-31.11C284.32,-31.11 293.02,-31.11 301.62,-31.11"/>
<polygon fill="black" stroke="black" points="301.63,-34.61 311.63,-31.11 301.63,-27.61 301.63,-34.61"/>
</g>
<!-- proc2 -->
<g id="node4" class="node">
<title>proc2</title>
<polygon fill="white" stroke="black" points="540.56,-49.11 445.56,-49.11 445.56,-13.11 540.56,-13.11 540.56,-49.11"/>
<text text-anchor="middle" x="493.06" y="-27.31" font-family="Times,serif" font-size="16.00">TensorRT</text>
</g>
<!-- dat2&#45;&gt;proc2 -->
<g id="edge3" class="edge">
<title>dat2&#45;&gt;proc2</title>
<path fill="none" stroke="black" d="M409.91,-31.11C418.16,-31.11 426.8,-31.11 435.24,-31.11"/>
<polygon fill="black" stroke="black" points="435.41,-34.61 445.41,-31.11 435.41,-27.61 435.41,-34.61"/>
</g>
<!-- dat3 -->
<g id="node5" class="node">
<title>dat3</title>
<ellipse fill="white" stroke="black" cx="643.73" cy="-31.11" rx="67.35" ry="31.23"/>
<text text-anchor="middle" x="643.73" y="-36.31" font-family="Times,serif" font-size="16.00">TensorRT</text>
<text text-anchor="middle" x="643.73" y="-18.31" font-family="Times,serif" font-size="16.00">Engine</text>
</g>
<!-- proc2&#45;&gt;dat3 -->
<g id="edge4" class="edge">
<title>proc2&#45;&gt;dat3</title>
<path fill="none" stroke="black" d="M540.69,-31.11C548.83,-31.11 557.49,-31.11 566.19,-31.11"/>
<polygon fill="black" stroke="black" points="566.39,-34.61 576.39,-31.11 566.39,-27.61 566.39,-34.61"/>
</g>
</g>
</svg>
