<?xml version="1.0" encoding="UTF-8" standalone="no"?>
<!DOCTYPE svg PUBLIC "-//W3C//DTD SVG 1.1//EN"
 "http://www.w3.org/Graphics/SVG/1.1/DTD/svg11.dtd">
<!-- Generated by graphviz version 2.43.0 (0)
 -->
<!-- Title: graph_name Pages: 1 -->
<svg width="675pt" height="100pt"
 viewBox="0.00 0.00 674.94 99.77" xmlns="http://www.w3.org/2000/svg" xmlns:xlink="http://www.w3.org/1999/xlink">
<g id="graph0" class="graph" transform="scale(1 1) rotate(0) translate(4 95.77)">
<title>graph_name</title>
<polygon fill="white" stroke="transparent" points="-4,4 -4,-95.77 670.94,-95.77 670.94,4 -4,4"/>
<!-- dat1 -->
<g id="node1" class="node">
<title>dat1</title>
<ellipse fill="white" stroke="black" cx="118.79" cy="-73.38" rx="118.59" ry="18.27"/>
<text text-anchor="middle" x="118.79" y="-69.58" font-family="Times,serif" font-size="16.00">Torchvision Model</text>
</g>
<!-- proc1 -->
<g id="node3" class="node">
<title>proc1</title>
<polygon fill="white" stroke="black" points="365.59,-63.38 273.59,-63.38 273.59,-27.38 365.59,-27.38 365.59,-63.38"/>
<text text-anchor="middle" x="319.59" y="-41.58" font-family="Times,serif" font-size="16.00">torch2trt</text>
</g>
<!-- dat1&#45;&gt;proc1 -->
<g id="edge1" class="edge">
<title>dat1&#45;&gt;proc1</title>
<path fill="none" stroke="black" d="M207.28,-61.06C226.35,-58.38 246.01,-55.61 263.41,-53.16"/>
<polygon fill="black" stroke="black" points="263.95,-56.62 273.36,-51.75 262.97,-49.68 263.95,-56.62"/>
</g>
<!-- dat2 -->
<g id="node2" class="node">
<title>dat2</title>
<ellipse fill="white" stroke="black" cx="118.79" cy="-18.38" rx="92.76" ry="18.27"/>
<text text-anchor="middle" x="118.79" y="-14.58" font-family="Times,serif" font-size="16.00">Custom Layer</text>
</g>
<!-- dat2&#45;&gt;proc1 -->
<g id="edge2" class="edge">
<title>dat2&#45;&gt;proc1</title>
<path fill="none" stroke="black" d="M195.8,-28.71C218.31,-31.77 242.52,-35.05 263.45,-37.9"/>
<polygon fill="black" stroke="black" points="263.05,-41.37 273.43,-39.25 263.99,-34.44 263.05,-41.37"/>
</g>
<!-- proc2 -->
<g id="node4" class="node">
<title>proc2</title>
<polygon fill="white" stroke="black" points="496.59,-63.38 401.59,-63.38 401.59,-27.38 496.59,-27.38 496.59,-63.38"/>
<text text-anchor="middle" x="449.09" y="-41.58" font-family="Times,serif" font-size="16.00">TensorRT</text>
</g>
<!-- proc1&#45;&gt;proc2 -->
<g id="edge3" class="edge">
<title>proc1&#45;&gt;proc2</title>
<path fill="none" stroke="black" d="M365.9,-45.38C374.04,-45.38 382.62,-45.38 391.04,-45.38"/>
<polygon fill="black" stroke="black" points="391.2,-48.88 401.2,-45.38 391.2,-41.88 391.2,-48.88"/>
</g>
<!-- dat3 -->
<g id="node5" class="node">
<title>dat3</title>
<ellipse fill="white" stroke="black" cx="599.76" cy="-45.38" rx="67.35" ry="31.23"/>
<text text-anchor="middle" x="599.76" y="-50.58" font-family="Times,serif" font-size="16.00">TensorRT</text>
<text text-anchor="middle" x="599.76" y="-32.58" font-family="Times,serif" font-size="16.00">Engine</text>
</g>
<!-- proc2&#45;&gt;dat3 -->
<g id="edge4" class="edge">
<title>proc2&#45;&gt;dat3</title>
<path fill="none" stroke="black" d="M496.72,-45.38C504.86,-45.38 513.52,-45.38 522.22,-45.38"/>
<polygon fill="black" stroke="black" points="522.42,-48.88 532.42,-45.38 522.42,-41.88 522.42,-48.88"/>
</g>
</g>
</svg>
