<?xml version="1.0" encoding="UTF-8" standalone="no"?>
<!DOCTYPE svg PUBLIC "-//W3C//DTD SVG 1.1//EN"
 "http://www.w3.org/Graphics/SVG/1.1/DTD/svg11.dtd">
<!-- Generated by graphviz version 2.43.0 (0)
 -->
<!-- Title: graph_name Pages: 1 -->
<svg width="645pt" height="204pt"
 viewBox="0.00 0.00 644.52 204.50" xmlns="http://www.w3.org/2000/svg" xmlns:xlink="http://www.w3.org/1999/xlink">
<g id="graph0" class="graph" transform="scale(1 1) rotate(0) translate(4 200.5)">
<title>graph_name</title>
<polygon fill="white" stroke="transparent" points="-4,4 -4,-200.5 640.52,-200.5 640.52,4 -4,4"/>
<!-- dat1 -->
<g id="node1" class="node">
<title>dat1</title>
<ellipse fill="white" stroke="black" cx="123.04" cy="-165.38" rx="118.59" ry="31.23"/>
<text text-anchor="middle" x="123.04" y="-170.58" font-family="Times,serif" font-size="16.00">Torchvision Model</text>
<text text-anchor="middle" x="123.04" y="-152.58" font-family="Times,serif" font-size="16.00">(Weights, Bias)</text>
</g>
<!-- proc1 -->
<g id="node4" class="node">
<title>proc1</title>
<polygon fill="white" stroke="black" points="377.07,-103.38 282.07,-103.38 282.07,-67.38 377.07,-67.38 377.07,-103.38"/>
<text text-anchor="middle" x="329.57" y="-81.58" font-family="Times,serif" font-size="16.00">TensorRT</text>
</g>
<!-- dat1&#45;&gt;proc1 -->
<g id="edge1" class="edge">
<title>dat1&#45;&gt;proc1</title>
<path fill="none" stroke="black" d="M201.1,-141.87C216.15,-136.79 231.71,-131.19 246.07,-125.38 258.77,-120.25 272.26,-114.05 284.57,-108.08"/>
<polygon fill="black" stroke="black" points="286.29,-111.13 293.72,-103.58 283.2,-104.85 286.29,-111.13"/>
</g>
<!-- dat2 -->
<g id="node2" class="node">
<title>dat2</title>
<ellipse fill="white" stroke="black" cx="123.04" cy="-85.38" rx="123.07" ry="31.23"/>
<text text-anchor="middle" x="123.04" y="-90.58" font-family="Times,serif" font-size="16.00">Network Definition</text>
<text text-anchor="middle" x="123.04" y="-72.58" font-family="Times,serif" font-size="16.00">with TensorRT API</text>
</g>
<!-- dat2&#45;&gt;proc1 -->
<g id="edge2" class="edge">
<title>dat2&#45;&gt;proc1</title>
<path fill="none" stroke="black" d="M246.26,-85.38C255.14,-85.38 263.81,-85.38 271.99,-85.38"/>
<polygon fill="black" stroke="black" points="272.07,-88.88 282.07,-85.38 272.07,-81.88 272.07,-88.88"/>
</g>
<!-- dat3 -->
<g id="node3" class="node">
<title>dat3</title>
<ellipse fill="white" stroke="black" cx="123.04" cy="-18.38" rx="92.76" ry="18.27"/>
<text text-anchor="middle" x="123.04" y="-14.58" font-family="Times,serif" font-size="16.00">Custom Layer</text>
</g>
<!-- dat3&#45;&gt;proc1 -->
<g id="edge3" class="edge">
<title>dat3&#45;&gt;proc1</title>
<path fill="none" stroke="black" d="M192.6,-30.61C210.25,-34.55 229.06,-39.47 246.07,-45.38 259.62,-50.1 273.86,-56.45 286.62,-62.7"/>
<polygon fill="black" stroke="black" points="285.1,-65.86 295.61,-67.21 288.24,-59.6 285.1,-65.86"/>
</g>
<!-- dat4 -->
<g id="node5" class="node">
<title>dat4</title>
<ellipse fill="white" stroke="black" cx="524.8" cy="-85.38" rx="111.95" ry="18.27"/>
<text text-anchor="middle" x="524.8" y="-81.58" font-family="Times,serif" font-size="16.00">TensorRT Engine</text>
</g>
<!-- proc1&#45;&gt;dat4 -->
<g id="edge4" class="edge">
<title>proc1&#45;&gt;dat4</title>
<path fill="none" stroke="black" d="M377.35,-85.38C385.3,-85.38 393.87,-85.38 402.74,-85.38"/>
<polygon fill="black" stroke="black" points="402.86,-88.88 412.86,-85.38 402.86,-81.88 402.86,-88.88"/>
</g>
</g>
</svg>
